<?xml version="1.0" standalone="no"?><svg xmlns="http://www.w3.org/2000/svg" viewBox="0 0 1440 320"><path fill="#0099ff" fill-opacity="1" d="M0,224L0,96L90,96L90,0L180,0L180,192L270,192L270,192L360,192L360,224L450,224L450,160L540,160L540,288L630,288L630,288L720,288L720,192L810,192L810,224L900,224L900,160L990,160L990,256L1080,256L1080,32L1170,32L1170,64L1260,64L1260,224L1350,224L1350,256L1440,256L1440,320L1350,320L1350,320L1260,320L1260,320L1170,320L1170,320L1080,320L1080,320L990,320L990,320L900,320L900,320L810,320L810,320L720,320L720,320L630,320L630,320L540,320L540,320L450,320L450,320L360,320L360,320L270,320L270,320L180,320L180,320L90,320L90,320L0,320L0,320Z"></path></svg>